# xmcd CD database file
#
# Track frame offsets:
#	150
#	15418
#	30527
#	41548
#	59030
#	74423
#	89746
#	109096
#	124605
#	139724
#	155889
#	170018
#	185979
#	198703
#	213807
#
# Disc length: 3051 seconds
#
# Revision: 2
# Processed by: cddbd v1.5.2PL0 Copyright (c) Steve Scherf et al.
# Submitted via: CDex 1.70beta2
#
DISCID=e40be90f
DTITLE=100% Country Music CD 1 y 2 - 100% Country Music CD 1
DYEAR=2003
DGENRE=Country
TTITLE0=Achy, breaky heart. Billy Ray Cyrus
TTITLE1=Down at the twist and shout. Mary Chapin Carpenter
TTITLE2=Chattahoochee. Alan Jackson
TTITLE3=Nothing but the taillights. Clint Black
TTITLE4=Tonight the heartaches on me. Dixie Chicks
TTITLE5=This is mi, missing you. James House
TTITLE6=All you ever do is bring me down. The Maverics
TTITLE7=My Maria. Brooks and Dunn
TTITLE8=Heaven in my woman eyes. Tracy Byrd
TTITLE9=Write this down. George Strait
TTITLE10=Highway 40 blues. Ricky Skaggs
TTITLE11=Blame it on your heart. Patty Loveless
TTITLE12=Mi vida loca. Pam Tillis
TTITLE13=Eighteen weels and a dozen roses. Kathy Mattea
TTITLE14=Cafe on the coner. Sawyer Brown
EXTD=YEAR: 2003
EXTT0=
EXTT1=
EXTT2=
EXTT3=
EXTT4=
EXTT5=
EXTT6=
EXTT7=
EXTT8=
EXTT9=
EXTT10=
EXTT11=
EXTT12=
EXTT13=
EXTT14=
PLAYORDER=
